<mxfile host="app.diagrams.net" agent="Mozilla/5.0 (Windows NT 10.0; Win64; x64) AppleWebKit/537.36 (KHTML, like Gecko) Chrome/128.0.0.0 YaBrowser/24.10.0.0 Safari/537.36" version="25.0.1">
  <diagram name="Страница — 1" id="YewMrC6nAqaQAt6S1z51">
    <mxGraphModel dx="595" dy="929" grid="1" gridSize="10" guides="1" tooltips="1" connect="1" arrows="1" fold="1" page="1" pageScale="1" pageWidth="827" pageHeight="1169" math="0" shadow="0">
      <root>
        <mxCell id="0" />
        <mxCell id="1" parent="0" />
        <mxCell id="hFtFcc4BcfZcLxbhp5GZ-14" value="include" style="edgeStyle=orthogonalEdgeStyle;rounded=0;orthogonalLoop=1;jettySize=auto;html=1;exitX=0;exitY=0.5;exitDx=0;exitDy=0;entryX=1;entryY=0.5;entryDx=0;entryDy=0;dashed=1;" edge="1" parent="1" source="hFtFcc4BcfZcLxbhp5GZ-1" target="hFtFcc4BcfZcLxbhp5GZ-5">
          <mxGeometry relative="1" as="geometry" />
        </mxCell>
        <mxCell id="hFtFcc4BcfZcLxbhp5GZ-15" value="include" style="edgeStyle=orthogonalEdgeStyle;rounded=0;orthogonalLoop=1;jettySize=auto;html=1;exitX=1;exitY=0.5;exitDx=0;exitDy=0;entryX=0;entryY=0.5;entryDx=0;entryDy=0;dashed=1;" edge="1" parent="1" source="hFtFcc4BcfZcLxbhp5GZ-1" target="hFtFcc4BcfZcLxbhp5GZ-6">
          <mxGeometry relative="1" as="geometry" />
        </mxCell>
        <mxCell id="hFtFcc4BcfZcLxbhp5GZ-16" value="include" style="edgeStyle=orthogonalEdgeStyle;rounded=0;orthogonalLoop=1;jettySize=auto;html=1;exitX=1;exitY=1;exitDx=0;exitDy=0;dashed=1;" edge="1" parent="1" source="hFtFcc4BcfZcLxbhp5GZ-1" target="hFtFcc4BcfZcLxbhp5GZ-8">
          <mxGeometry relative="1" as="geometry" />
        </mxCell>
        <mxCell id="hFtFcc4BcfZcLxbhp5GZ-1" value="оформить заказ" style="ellipse;whiteSpace=wrap;html=1;" vertex="1" parent="1">
          <mxGeometry x="260" y="400" width="120" height="80" as="geometry" />
        </mxCell>
        <mxCell id="hFtFcc4BcfZcLxbhp5GZ-10" style="edgeStyle=orthogonalEdgeStyle;rounded=0;orthogonalLoop=1;jettySize=auto;html=1;exitX=0.5;exitY=0.5;exitDx=0;exitDy=0;exitPerimeter=0;entryX=0;entryY=0;entryDx=0;entryDy=0;" edge="1" parent="1" source="hFtFcc4BcfZcLxbhp5GZ-2" target="hFtFcc4BcfZcLxbhp5GZ-1">
          <mxGeometry relative="1" as="geometry" />
        </mxCell>
        <mxCell id="hFtFcc4BcfZcLxbhp5GZ-2" value="Клиент" style="shape=umlActor;verticalLabelPosition=bottom;verticalAlign=top;html=1;outlineConnect=0;" vertex="1" parent="1">
          <mxGeometry x="60" y="240" width="30" height="60" as="geometry" />
        </mxCell>
        <mxCell id="hFtFcc4BcfZcLxbhp5GZ-11" style="edgeStyle=orthogonalEdgeStyle;rounded=0;orthogonalLoop=1;jettySize=auto;html=1;exitX=0.5;exitY=0.5;exitDx=0;exitDy=0;exitPerimeter=0;" edge="1" parent="1" source="hFtFcc4BcfZcLxbhp5GZ-3" target="hFtFcc4BcfZcLxbhp5GZ-1">
          <mxGeometry relative="1" as="geometry" />
        </mxCell>
        <mxCell id="hFtFcc4BcfZcLxbhp5GZ-3" value="Сотрудник" style="shape=umlActor;verticalLabelPosition=bottom;verticalAlign=top;html=1;outlineConnect=0;" vertex="1" parent="1">
          <mxGeometry x="305" y="120" width="30" height="60" as="geometry" />
        </mxCell>
        <mxCell id="hFtFcc4BcfZcLxbhp5GZ-12" style="edgeStyle=orthogonalEdgeStyle;rounded=0;orthogonalLoop=1;jettySize=auto;html=1;exitX=0.5;exitY=0.5;exitDx=0;exitDy=0;exitPerimeter=0;entryX=1;entryY=0;entryDx=0;entryDy=0;" edge="1" parent="1" source="hFtFcc4BcfZcLxbhp5GZ-4" target="hFtFcc4BcfZcLxbhp5GZ-1">
          <mxGeometry relative="1" as="geometry" />
        </mxCell>
        <mxCell id="hFtFcc4BcfZcLxbhp5GZ-4" value="Инф. система" style="shape=umlActor;verticalLabelPosition=bottom;verticalAlign=top;html=1;outlineConnect=0;" vertex="1" parent="1">
          <mxGeometry x="550" y="240" width="30" height="60" as="geometry" />
        </mxCell>
        <mxCell id="hFtFcc4BcfZcLxbhp5GZ-5" value="получение личных данных клиента" style="ellipse;whiteSpace=wrap;html=1;" vertex="1" parent="1">
          <mxGeometry x="15" y="400" width="120" height="80" as="geometry" />
        </mxCell>
        <mxCell id="hFtFcc4BcfZcLxbhp5GZ-6" value="поверка на наличие клиента в БД" style="ellipse;whiteSpace=wrap;html=1;" vertex="1" parent="1">
          <mxGeometry x="500" y="400" width="120" height="80" as="geometry" />
        </mxCell>
        <mxCell id="hFtFcc4BcfZcLxbhp5GZ-13" value="extends" style="edgeStyle=orthogonalEdgeStyle;rounded=0;orthogonalLoop=1;jettySize=auto;html=1;exitX=1;exitY=0;exitDx=0;exitDy=0;entryX=0;entryY=1;entryDx=0;entryDy=0;dashed=1;" edge="1" parent="1" source="hFtFcc4BcfZcLxbhp5GZ-7" target="hFtFcc4BcfZcLxbhp5GZ-1">
          <mxGeometry relative="1" as="geometry" />
        </mxCell>
        <mxCell id="hFtFcc4BcfZcLxbhp5GZ-7" value="внесение данных о клиенте в БД" style="ellipse;whiteSpace=wrap;html=1;" vertex="1" parent="1">
          <mxGeometry x="120" y="600" width="120" height="80" as="geometry" />
        </mxCell>
        <mxCell id="hFtFcc4BcfZcLxbhp5GZ-8" value="внесение данных о заказе в БД" style="ellipse;whiteSpace=wrap;html=1;" vertex="1" parent="1">
          <mxGeometry x="390" y="600" width="120" height="80" as="geometry" />
        </mxCell>
      </root>
    </mxGraphModel>
  </diagram>
</mxfile>
